<svg width="75" height="49" viewBox="0 0 75 49" fill="none" xmlns="http://www.w3.org/2000/svg">
<path d="M48.3636 48.4C47.9636 48.4 47.4636 48.3 47.0636 48.1L37.1636 42.9L27.2636 48.1C26.3636 48.6 25.2636 48.5 24.3636 47.9C23.5636 47.3 23.0636 46.3 23.2636 45.2L25.1636 34.2L17.1636 26.4C16.4636 25.7 16.1636 24.6 16.4636 23.6C16.7636 22.6 17.6636 21.9 18.6636 21.7L29.7636 20.1L34.7636 10C35.2636 9.1 36.1636 8.5 37.1636 8.5C38.1636 8.5 39.1636 9.1 39.5636 10L44.5636 20.1L55.6636 21.7C56.6636 21.9 57.5636 22.6 57.8636 23.6C58.1636 24.6 57.9636 25.7 57.1636 26.4L49.1636 34.2L51.0636 45.2C51.2636 46.2 50.8637 47.3 49.9636 47.9C49.4636 48.2 48.8636 48.4 48.3636 48.4ZM37.1636 40.8C37.3636 40.8 37.4636 40.8 37.6636 40.9L48.0636 46.4C48.4636 46.6 48.7636 46.4 48.8636 46.3C48.9636 46.2 49.2636 46 49.1636 45.6L47.0636 34C46.9636 33.7 47.1636 33.3 47.3636 33.1L55.7636 24.9C56.0636 24.6 55.9636 24.3 55.9636 24.2C55.9636 24.1 55.7636 23.8 55.3636 23.7L43.7636 22C43.4636 22 43.1637 21.7 42.9636 21.5L37.7636 11C37.5636 10.6 37.2636 10.6 37.0636 10.6C36.8636 10.6 36.5636 10.6 36.3636 11L31.1636 21.5C31.0636 21.8 30.7636 22 30.3636 22L18.7636 23.7C18.3636 23.8 18.2636 24.1 18.1636 24.2C18.0636 24.3 18.0636 24.7 18.3636 24.9L26.7636 33.1C26.9636 33.3 27.0636 33.7 27.0636 34L25.0636 45.6C24.9636 46 25.2636 46.2 25.3636 46.3C25.4636 46.4 25.7636 46.5 26.1636 46.4L36.5636 40.9C36.8636 40.8 36.9636 40.8 37.1636 40.8Z" fill="#FF5722"/>
<path d="M61.1636 48.6999C59.5636 48.6999 57.8636 47.9999 56.2636 46.6999C55.9636 46.4999 55.8636 46.0999 55.9636 45.6999C56.6636 42.9999 57.9636 41.1999 59.9636 40.3999C63.5636 38.8999 67.8636 41.3999 68.0636 41.4999C68.4636 41.7999 68.6636 42.2999 68.4636 42.6999C68.3636 42.8999 66.4636 47.4999 62.6636 48.4999C62.1636 48.6999 61.6636 48.6999 61.1636 48.6999ZM58.0636 45.4999C59.4636 46.4999 60.8636 46.8999 62.0636 46.5999C64.0636 46.0999 65.4636 43.9999 66.0636 42.7999C64.8636 42.1999 62.4636 41.3999 60.5636 42.1999C59.4636 42.6999 58.5636 43.7999 58.0636 45.4999Z" fill="#191F3D"/>
<path d="M66.8637 35.8C65.3637 35.8 63.7637 35.2 62.1637 34.1C61.8637 33.9 61.6637 33.5 61.7637 33.1C62.2637 30.4 63.4637 28.5 65.3637 27.6C68.8637 25.9 73.3637 28.1 73.5637 28.2C73.9637 28.4 74.1637 28.9 74.0637 29.4C73.9637 29.6 72.3637 34.3 68.6637 35.5C68.0637 35.7 67.4637 35.8 66.8637 35.8ZM63.8637 32.8C65.3637 33.7 66.7637 34 67.9637 33.6C69.9637 33 71.1636 30.8 71.7636 29.6C70.4636 29.1 68.0637 28.4 66.2636 29.4C65.0636 29.9 64.2637 31.1 63.8637 32.8Z" fill="#191F3D"/>
<path d="M65.5637 23.3C64.6637 23.3 63.6637 23.1 62.5637 22.8C62.1637 22.7 61.9637 22.4 61.8637 22C61.4637 19.2 62.0637 17.1 63.5637 15.6C66.3637 12.9 71.2637 13.6 71.5637 13.7C72.0637 13.8 72.3637 14.2 72.3637 14.7C72.3637 14.9 72.2637 19.9 69.0637 22.2C68.0637 22.9 66.8637 23.3 65.5637 23.3ZM63.7637 21.1C65.4637 21.5 66.8637 21.4 67.9637 20.6C69.5637 19.5 70.1637 17.1 70.3637 15.6C69.0637 15.5 66.4637 15.6 65.0637 17.1C64.0637 17.9 63.6637 19.3 63.7637 21.1Z" fill="#191F3D"/>
<path d="M57.4637 11C57.1637 11 56.8637 11 56.5637 11C56.1637 11 55.8637 10.7 55.6637 10.4C54.6637 7.8 54.7637 5.6 55.8637 3.8C58.0637 0.4 63.0637 0 63.2637 0C63.7637 0 64.1636 0.3 64.2636 0.8C64.2636 1 65.3637 5.9 62.8637 8.9C61.5637 10.3 59.8637 11 57.4637 11ZM57.3637 9C59.1637 9 60.4637 8.5 61.2637 7.6C62.5637 6 62.5637 3.5 62.3637 2.2C61.0637 2.4 58.6637 3.1 57.5637 4.9C56.9637 5.9 56.8637 7.3 57.3637 9Z" fill="#191F3D"/>
<path d="M12.9637 48.6999C12.4637 48.6999 12.0637 48.5999 11.5637 48.4999C7.76367 47.4999 5.86367 42.8999 5.76367 42.6999C5.56367 42.1999 5.76367 41.6999 6.16367 41.4999C6.36367 41.3999 10.6637 38.8999 14.2637 40.3999C16.1637 41.1999 17.5637 42.9999 18.2637 45.6999C18.3637 46.0999 18.2637 46.4999 17.9637 46.6999C16.1637 47.9999 14.5637 48.6999 12.9637 48.6999ZM7.96367 42.7999C8.56367 43.9999 9.96367 46.0999 11.9637 46.5999C13.1637 46.8999 14.5637 46.5999 15.9637 45.4999C15.4637 43.7999 14.5637 42.6999 13.3637 42.1999C11.6637 41.4999 9.36367 42.1999 7.96367 42.7999Z" fill="#191F3D"/>
<path d="M7.26366 35.8C6.66366 35.8 6.06366 35.7 5.46366 35.5C1.76366 34.3 0.0636599 29.6 0.0636599 29.4C-0.13634 28.9 0.16366 28.4 0.56366 28.2C0.76366 28.1 5.16366 25.8 8.76366 27.6C10.6637 28.5 11.8637 30.4 12.3637 33.1C12.4637 33.5 12.2637 33.9 11.9637 34.1C10.3637 35.2 8.76366 35.8 7.26366 35.8ZM2.36366 29.6C2.96366 30.8 4.16366 33 6.16366 33.6C7.36366 34 8.76366 33.7 10.2637 32.8C9.86366 31.1 9.06366 29.9 7.86366 29.4C6.06366 28.5 3.66366 29.1 2.36366 29.6Z" fill="#191F3D"/>
<path d="M8.66367 23.3C7.26367 23.3 6.06367 22.9 5.06367 22.2C1.86367 19.9 1.76367 14.9 1.76367 14.7C1.76367 14.2 2.16367 13.8 2.56367 13.7C2.76367 13.7 7.66367 12.9 10.5637 15.6C12.0637 17.1 12.6637 19.2 12.2637 22C12.1637 22.4 11.9637 22.7 11.5637 22.8C10.5637 23.1 9.56367 23.3 8.66367 23.3ZM3.86367 15.6C4.06367 16.9 4.56367 19.4 6.26367 20.6C7.26367 21.4 8.66367 21.5 10.4637 21.1C10.5637 19.3 10.1637 18 9.26367 17.1C7.66367 15.6 5.16367 15.5 3.86367 15.6Z" fill="#191F3D"/>
<path d="M16.6637 11C14.3637 11 12.5637 10.3 11.2637 8.9C8.76366 5.9 9.86366 1 9.86366 0.8C9.96366 0.3 10.3637 0 10.8637 0C11.0637 0 16.0637 0.4 18.1637 3.7C19.2637 5.5 19.3637 7.7 18.3637 10.3C18.2637 10.7 17.8637 10.9 17.4637 10.9C17.2637 11 16.9637 11 16.6637 11ZM11.6637 2.1C11.5637 3.4 11.4637 5.9 12.7637 7.5C13.5637 8.5 14.9637 9 16.6637 8.9C17.1637 7.2 17.0637 5.8 16.4637 4.7C15.3637 3.1 12.9637 2.4 11.6637 2.1Z" fill="#191F3D"/>
</svg>
