<svg width="165" height="30" viewBox="0 0 165 30" fill="none" xmlns="http://www.w3.org/2000/svg">
<path d="M5.33962 1.24767C5.64584 0.493405 6.37867 0 7.19273 0H163C164.105 0 165 0.895431 165 2V28C165 29.1046 164.105 30 163 30H7.23247C6.39863 30 5.65228 29.4827 5.35966 28.7018L0.273918 15.1309C0.0977757 14.6609 0.10481 14.1418 0.293623 13.6768L5.33962 1.24767Z" fill="#FF5722"/>
<circle cx="25" cy="15" r="10" fill="white"/>
<rect x="19.0234" y="16.3457" width="2.5" height="6" transform="rotate(-45 19.0234 16.3457)" fill="#FF5722"/>
<rect x="29.9922" y="10.4009" width="2.5" height="12" transform="rotate(45 29.9922 10.4009)" fill="#FF5722"/>
<path d="M48.696 20C48.6027 20 48.5233 19.972 48.458 19.916C48.402 19.8507 48.374 19.7713 48.374 19.678V11.404H45.672C45.5787 11.404 45.4993 11.376 45.434 11.32C45.378 11.2547 45.35 11.1753 45.35 11.082V10.536C45.35 10.4333 45.378 10.354 45.434 10.298C45.4993 10.2327 45.5787 10.2 45.672 10.2H52.392C52.4947 10.2 52.574 10.2327 52.63 10.298C52.686 10.354 52.714 10.4333 52.714 10.536V11.082C52.714 11.1753 52.6813 11.2547 52.616 11.32C52.56 11.376 52.4853 11.404 52.392 11.404H49.704V19.678C49.704 19.7713 49.6713 19.8507 49.606 19.916C49.5407 19.972 49.4613 20 49.368 20H48.696ZM56.8041 20.14C55.7774 20.14 54.9841 19.8507 54.4241 19.272C53.8734 18.6933 53.5794 17.9233 53.5421 16.962L53.5281 16.36L53.5421 15.758C53.5794 14.7967 53.8781 14.0267 54.4381 13.448C55.0074 12.8693 55.7961 12.58 56.8041 12.58C57.8121 12.58 58.5961 12.8693 59.1561 13.448C59.7254 14.0267 60.0287 14.7967 60.0661 15.758C60.0847 15.9633 60.0941 16.164 60.0941 16.36C60.0941 16.556 60.0847 16.7567 60.0661 16.962C60.0287 17.9233 59.7301 18.6933 59.1701 19.272C58.6194 19.8507 57.8307 20.14 56.8041 20.14ZM56.8041 19.09C57.4014 19.09 57.8727 18.9033 58.2181 18.53C58.5727 18.1473 58.7641 17.6013 58.7921 16.892C58.8014 16.7987 58.8061 16.6213 58.8061 16.36C58.8061 16.0987 58.8014 15.9213 58.7921 15.828C58.7641 15.1187 58.5727 14.5773 58.2181 14.204C57.8727 13.8213 57.4014 13.63 56.8041 13.63C56.2067 13.63 55.7307 13.8213 55.3761 14.204C55.0307 14.5773 54.8441 15.1187 54.8161 15.828L54.8021 16.36L54.8161 16.892C54.8441 17.6013 55.0307 18.1473 55.3761 18.53C55.7307 18.9033 56.2067 19.09 56.8041 19.09ZM61.9038 20C61.8105 20 61.7311 19.972 61.6658 19.916C61.6098 19.8507 61.5818 19.7713 61.5818 19.678V13.042C61.5818 12.9487 61.6098 12.874 61.6658 12.818C61.7311 12.7527 61.8105 12.72 61.9038 12.72H64.8018C65.6418 12.72 66.2858 12.8973 66.7338 13.252C67.1911 13.5973 67.4198 14.0687 67.4198 14.666C67.4198 15.0673 67.3451 15.38 67.1958 15.604C67.0465 15.828 66.8131 16.0193 66.4958 16.178C66.8318 16.318 67.0931 16.5513 67.2798 16.878C67.4758 17.2047 67.5738 17.5593 67.5738 17.942C67.5738 18.6047 67.3405 19.1133 66.8738 19.468C66.4071 19.8227 65.7491 20 64.8998 20H61.9038ZM64.7038 15.828C65.1611 15.828 65.5251 15.73 65.7958 15.534C66.0665 15.3287 66.2018 15.044 66.2018 14.68C66.2018 14.036 65.7025 13.714 64.7038 13.714H62.8138V15.828H64.7038ZM64.7878 19.006C65.2545 19.006 65.6231 18.9173 65.8938 18.74C66.1738 18.5533 66.3138 18.2827 66.3138 17.928C66.3138 17.5547 66.1878 17.2793 65.9358 17.102C65.6838 16.9247 65.3011 16.836 64.7878 16.836H62.8138V19.006H64.7878ZM71.1381 20.14C70.6808 20.14 70.2561 20.0467 69.8641 19.86C69.4814 19.6733 69.1734 19.4213 68.9401 19.104C68.7161 18.7773 68.6041 18.418 68.6041 18.026C68.6041 17.41 68.8561 16.906 69.3601 16.514C69.8641 16.122 70.5501 15.8607 71.4181 15.73L73.5181 15.436V15.03C73.5181 14.0687 72.9628 13.588 71.8521 13.588C71.4228 13.588 71.0774 13.6767 70.8161 13.854C70.5548 14.022 70.3634 14.2227 70.2421 14.456C70.2048 14.5493 70.1628 14.6147 70.1161 14.652C70.0788 14.68 70.0228 14.694 69.9481 14.694H69.4021C69.3181 14.694 69.2434 14.666 69.1781 14.61C69.1221 14.5447 69.0941 14.47 69.0941 14.386C69.0941 14.1713 69.1921 13.924 69.3881 13.644C69.5934 13.3547 69.9061 13.1073 70.3261 12.902C70.7461 12.6873 71.2594 12.58 71.8661 12.58C72.9114 12.58 73.6581 12.8227 74.1061 13.308C74.5634 13.7933 74.7921 14.4 74.7921 15.128V19.678C74.7921 19.7713 74.7594 19.8507 74.6941 19.916C74.6381 19.972 74.5634 20 74.4701 20H73.8541C73.7608 20 73.6861 19.972 73.6301 19.916C73.5741 19.8507 73.5461 19.7713 73.5461 19.678V19.062C73.3408 19.37 73.0421 19.6267 72.6501 19.832C72.2581 20.0373 71.7541 20.14 71.1381 20.14ZM71.4181 19.118C72.0341 19.118 72.5381 18.9173 72.9301 18.516C73.3221 18.1147 73.5181 17.5313 73.5181 16.766V16.374L71.8801 16.612C71.2081 16.7053 70.6994 16.864 70.3541 17.088C70.0088 17.312 69.8361 17.592 69.8361 17.928C69.8361 18.3107 69.9901 18.6047 70.2981 18.81C70.6154 19.0153 70.9888 19.118 71.4181 19.118ZM76.8754 22.66C76.782 22.66 76.7027 22.632 76.6374 22.576C76.5814 22.52 76.5534 22.4407 76.5534 22.338V13.042C76.5534 12.9393 76.5814 12.86 76.6374 12.804C76.7027 12.748 76.782 12.72 76.8754 12.72H77.4634C77.566 12.72 77.6454 12.748 77.7014 12.804C77.7574 12.86 77.7854 12.9393 77.7854 13.042V13.658C78.3267 12.9393 79.0967 12.58 80.0954 12.58C81.0754 12.58 81.808 12.8927 82.2934 13.518C82.788 14.134 83.0494 14.9227 83.0774 15.884C83.0867 15.9867 83.0914 16.1453 83.0914 16.36C83.0914 16.5747 83.0867 16.7333 83.0774 16.836C83.0494 17.788 82.788 18.5767 82.2934 19.202C81.808 19.8273 81.0754 20.14 80.0954 20.14C79.0967 20.14 78.3407 19.7853 77.8274 19.076V22.338C77.8274 22.4313 77.7947 22.506 77.7294 22.562C77.6734 22.6273 77.5987 22.66 77.5054 22.66H76.8754ZM79.8294 19.048C80.5014 19.048 80.9914 18.838 81.2994 18.418C81.6074 17.998 81.7754 17.4473 81.8034 16.766C81.8127 16.6727 81.8174 16.5373 81.8174 16.36C81.8174 14.568 81.1547 13.672 79.8294 13.672C79.176 13.672 78.6814 13.8913 78.3454 14.33C78.0187 14.7593 77.846 15.268 77.8274 15.856C77.818 15.9587 77.8134 16.1407 77.8134 16.402C77.8134 16.6633 77.818 16.8453 77.8274 16.948C77.846 17.5173 78.0234 18.012 78.3594 18.432C78.7047 18.8427 79.1947 19.048 79.8294 19.048ZM88.0592 20C87.9659 20 87.8865 19.972 87.8212 19.916C87.7652 19.8507 87.7372 19.7713 87.7372 19.678V13.042C87.7372 12.9487 87.7652 12.874 87.8212 12.818C87.8865 12.7527 87.9659 12.72 88.0592 12.72H90.9572C91.7972 12.72 92.4412 12.8973 92.8892 13.252C93.3465 13.5973 93.5752 14.0687 93.5752 14.666C93.5752 15.0673 93.5005 15.38 93.3512 15.604C93.2019 15.828 92.9685 16.0193 92.6512 16.178C92.9872 16.318 93.2485 16.5513 93.4352 16.878C93.6312 17.2047 93.7292 17.5593 93.7292 17.942C93.7292 18.6047 93.4959 19.1133 93.0292 19.468C92.5625 19.8227 91.9045 20 91.0552 20H88.0592ZM90.8592 15.828C91.3165 15.828 91.6805 15.73 91.9512 15.534C92.2219 15.3287 92.3572 15.044 92.3572 14.68C92.3572 14.036 91.8579 13.714 90.8592 13.714H88.9692V15.828H90.8592ZM90.9432 19.006C91.4099 19.006 91.7785 18.9173 92.0492 18.74C92.3292 18.5533 92.4692 18.2827 92.4692 17.928C92.4692 17.5547 92.3432 17.2793 92.0912 17.102C91.8392 16.9247 91.4565 16.836 90.9432 16.836H88.9692V19.006H90.9432ZM98.7648 20C98.6715 20 98.5921 19.972 98.5268 19.916C98.4708 19.8507 98.4428 19.7713 98.4428 19.678V13.042C98.4428 12.9487 98.4708 12.874 98.5268 12.818C98.5921 12.7527 98.6715 12.72 98.7648 12.72H99.3808C99.4741 12.72 99.5488 12.7527 99.6048 12.818C99.6701 12.874 99.7028 12.9487 99.7028 13.042V15.744H103.567V13.042C103.567 12.9487 103.595 12.874 103.651 12.818C103.716 12.7527 103.795 12.72 103.889 12.72H104.505C104.607 12.72 104.687 12.748 104.743 12.804C104.799 12.86 104.827 12.9393 104.827 13.042V19.678C104.827 19.7713 104.794 19.8507 104.729 19.916C104.673 19.972 104.598 20 104.505 20H103.889C103.795 20 103.716 19.972 103.651 19.916C103.595 19.8507 103.567 19.7713 103.567 19.678V16.822H99.7028V19.678C99.7028 19.7713 99.6701 19.8507 99.6048 19.916C99.5488 19.972 99.4741 20 99.3808 20H98.7648ZM108.683 20.14C108.225 20.14 107.801 20.0467 107.409 19.86C107.026 19.6733 106.718 19.4213 106.485 19.104C106.261 18.7773 106.149 18.418 106.149 18.026C106.149 17.41 106.401 16.906 106.905 16.514C107.409 16.122 108.095 15.8607 108.963 15.73L111.063 15.436V15.03C111.063 14.0687 110.507 13.588 109.397 13.588C108.967 13.588 108.622 13.6767 108.361 13.854C108.099 14.022 107.908 14.2227 107.787 14.456C107.749 14.5493 107.707 14.6147 107.661 14.652C107.623 14.68 107.567 14.694 107.493 14.694H106.947C106.863 14.694 106.788 14.666 106.723 14.61C106.667 14.5447 106.639 14.47 106.639 14.386C106.639 14.1713 106.737 13.924 106.933 13.644C107.138 13.3547 107.451 13.1073 107.871 12.902C108.291 12.6873 108.804 12.58 109.411 12.58C110.456 12.58 111.203 12.8227 111.651 13.308C112.108 13.7933 112.337 14.4 112.337 15.128V19.678C112.337 19.7713 112.304 19.8507 112.239 19.916C112.183 19.972 112.108 20 112.015 20H111.399C111.305 20 111.231 19.972 111.175 19.916C111.119 19.8507 111.091 19.7713 111.091 19.678V19.062C110.885 19.37 110.587 19.6267 110.195 19.832C109.803 20.0373 109.299 20.14 108.683 20.14ZM108.963 19.118C109.579 19.118 110.083 18.9173 110.475 18.516C110.867 18.1147 111.063 17.5313 111.063 16.766V16.374L109.425 16.612C108.753 16.7053 108.244 16.864 107.899 17.088C107.553 17.312 107.381 17.592 107.381 17.928C107.381 18.3107 107.535 18.6047 107.843 18.81C108.16 19.0153 108.533 19.118 108.963 19.118ZM113.72 20C113.627 20 113.547 19.9673 113.482 19.902C113.417 19.8367 113.384 19.7573 113.384 19.664V19.174C113.384 19.09 113.412 19.02 113.468 18.964C113.524 18.908 113.594 18.8753 113.678 18.866C114.126 18.8567 114.462 18.5393 114.686 17.914C114.91 17.2793 115.022 16.2527 115.022 14.834V13.042C115.022 12.9487 115.05 12.874 115.106 12.818C115.171 12.7527 115.251 12.72 115.344 12.72H119.74C119.843 12.72 119.922 12.748 119.978 12.804C120.034 12.86 120.062 12.9393 120.062 13.042V19.678C120.062 19.7713 120.029 19.8507 119.964 19.916C119.908 19.972 119.833 20 119.74 20H119.124C119.031 20 118.951 19.972 118.886 19.916C118.83 19.8507 118.802 19.7713 118.802 19.678V13.798H116.254V14.974C116.254 16.7473 116.049 18.0307 115.638 18.824C115.227 19.608 114.588 20 113.72 20ZM128.03 12.72C128.104 12.72 128.174 12.748 128.24 12.804C128.305 12.86 128.338 12.9253 128.338 13V19.678C128.338 19.7713 128.305 19.8507 128.24 19.916C128.184 19.972 128.109 20 128.016 20H127.4C127.306 20 127.227 19.972 127.162 19.916C127.106 19.8507 127.078 19.7713 127.078 19.678V14.554L123.158 19.79C123.055 19.93 122.934 20 122.794 20H122.192C122.117 20 122.047 19.972 121.982 19.916C121.926 19.8507 121.898 19.7807 121.898 19.706V13.042C121.898 12.9487 121.926 12.874 121.982 12.818C122.047 12.7527 122.126 12.72 122.22 12.72H122.836C122.929 12.72 123.004 12.7527 123.06 12.818C123.125 12.874 123.158 12.9487 123.158 13.042V18.166L127.078 12.93C127.18 12.79 127.302 12.72 127.442 12.72H128.03ZM134.7 20C134.606 20 134.527 19.972 134.462 19.916C134.406 19.8507 134.378 19.7713 134.378 19.678V17.018C133.892 17.4753 133.178 17.704 132.236 17.704C130.518 17.704 129.66 16.9433 129.66 15.422V13.042C129.66 12.9393 129.688 12.86 129.744 12.804C129.809 12.748 129.888 12.72 129.982 12.72H130.612C130.705 12.72 130.78 12.7527 130.836 12.818C130.901 12.874 130.934 12.9487 130.934 13.042V15.338C130.934 15.7673 131.055 16.08 131.298 16.276C131.54 16.4627 131.928 16.556 132.46 16.556C133.076 16.556 133.547 16.4813 133.874 16.332C134.21 16.1733 134.378 15.9167 134.378 15.562V13.042C134.378 12.9487 134.406 12.874 134.462 12.818C134.527 12.7527 134.606 12.72 134.7 12.72H135.358C135.451 12.72 135.526 12.7527 135.582 12.818C135.647 12.874 135.68 12.9487 135.68 13.042V19.678C135.68 19.7713 135.647 19.8507 135.582 19.916C135.526 19.972 135.451 20 135.358 20H134.7ZM143.644 12.72C143.718 12.72 143.788 12.748 143.854 12.804C143.919 12.86 143.952 12.9253 143.952 13V19.678C143.952 19.7713 143.919 19.8507 143.854 19.916C143.798 19.972 143.723 20 143.63 20H143.014C142.92 20 142.841 19.972 142.776 19.916C142.72 19.8507 142.692 19.7713 142.692 19.678V14.554L138.772 19.79C138.669 19.93 138.548 20 138.408 20H137.806C137.731 20 137.661 19.972 137.596 19.916C137.54 19.8507 137.512 19.7807 137.512 19.706V13.042C137.512 12.9487 137.54 12.874 137.596 12.818C137.661 12.7527 137.74 12.72 137.834 12.72H138.45C138.543 12.72 138.618 12.7527 138.674 12.818C138.739 12.874 138.772 12.9487 138.772 13.042V18.166L142.692 12.93C142.794 12.79 142.916 12.72 143.056 12.72H143.644ZM151.867 12.72C151.942 12.72 152.012 12.748 152.077 12.804C152.143 12.86 152.175 12.9253 152.175 13V19.678C152.175 19.7713 152.143 19.8507 152.077 19.916C152.021 19.972 151.947 20 151.853 20H151.237C151.144 20 151.065 19.972 150.999 19.916C150.943 19.8507 150.915 19.7713 150.915 19.678V14.554L146.995 19.79C146.893 19.93 146.771 20 146.631 20H146.029C145.955 20 145.885 19.972 145.819 19.916C145.763 19.8507 145.735 19.7807 145.735 19.706V13.042C145.735 12.9487 145.763 12.874 145.819 12.818C145.885 12.7527 145.964 12.72 146.057 12.72H146.673C146.767 12.72 146.841 12.7527 146.897 12.818C146.963 12.874 146.995 12.9487 146.995 13.042V18.166L150.915 12.93C151.018 12.79 151.139 12.72 151.279 12.72H151.867Z" fill="white"/>
</svg>
