<svg width="195" height="50" viewBox="0 0 195 50" fill="none" xmlns="http://www.w3.org/2000/svg">
<path d="M13.4212 0.992257C13.7796 0.377822 14.4374 0 15.1487 0H193C194.105 0 195 0.895431 195 2V48C195 49.1046 194.105 50 193 50H15.1946C14.4588 50 13.7825 49.596 13.4336 48.9482L0.531639 24.9873C0.201396 24.374 0.214043 23.6331 0.565024 23.0314L13.4212 0.992257Z" fill="#FF5722"/>
<circle cx="43.5" cy="24.5" r="12.5" fill="white"/>
<rect x="35.9998" y="25.3211" width="2.5" height="7.5" transform="rotate(-45 35.9998 25.3211)" fill="#FF5722"/>
<rect x="50.1421" y="18.25" width="2.5" height="15" transform="rotate(45 50.1421 18.25)" fill="#FF5722"/>
<path d="M71.696 24C71.6027 24 71.5233 23.972 71.458 23.916C71.402 23.8507 71.374 23.7713 71.374 23.678V15.404H68.672C68.5787 15.404 68.4993 15.376 68.434 15.32C68.378 15.2547 68.35 15.1753 68.35 15.082V14.536C68.35 14.4333 68.378 14.354 68.434 14.298C68.4993 14.2327 68.5787 14.2 68.672 14.2H75.392C75.4947 14.2 75.574 14.2327 75.63 14.298C75.686 14.354 75.714 14.4333 75.714 14.536V15.082C75.714 15.1753 75.6813 15.2547 75.616 15.32C75.56 15.376 75.4853 15.404 75.392 15.404H72.704V23.678C72.704 23.7713 72.6713 23.8507 72.606 23.916C72.5407 23.972 72.4613 24 72.368 24H71.696ZM79.8041 24.14C78.7774 24.14 77.9841 23.8507 77.4241 23.272C76.8734 22.6933 76.5794 21.9233 76.5421 20.962L76.5281 20.36L76.5421 19.758C76.5794 18.7967 76.8781 18.0267 77.4381 17.448C78.0074 16.8693 78.7961 16.58 79.8041 16.58C80.8121 16.58 81.5961 16.8693 82.1561 17.448C82.7254 18.0267 83.0287 18.7967 83.0661 19.758C83.0847 19.9633 83.0941 20.164 83.0941 20.36C83.0941 20.556 83.0847 20.7567 83.0661 20.962C83.0287 21.9233 82.7301 22.6933 82.1701 23.272C81.6194 23.8507 80.8307 24.14 79.8041 24.14ZM79.8041 23.09C80.4014 23.09 80.8727 22.9033 81.2181 22.53C81.5727 22.1473 81.7641 21.6013 81.7921 20.892C81.8014 20.7987 81.8061 20.6213 81.8061 20.36C81.8061 20.0987 81.8014 19.9213 81.7921 19.828C81.7641 19.1187 81.5727 18.5773 81.2181 18.204C80.8727 17.8213 80.4014 17.63 79.8041 17.63C79.2067 17.63 78.7307 17.8213 78.3761 18.204C78.0307 18.5773 77.8441 19.1187 77.8161 19.828L77.8021 20.36L77.8161 20.892C77.8441 21.6013 78.0307 22.1473 78.3761 22.53C78.7307 22.9033 79.2067 23.09 79.8041 23.09ZM84.9038 24C84.8105 24 84.7311 23.972 84.6658 23.916C84.6098 23.8507 84.5818 23.7713 84.5818 23.678V17.042C84.5818 16.9487 84.6098 16.874 84.6658 16.818C84.7311 16.7527 84.8105 16.72 84.9038 16.72H87.8018C88.6418 16.72 89.2858 16.8973 89.7338 17.252C90.1911 17.5973 90.4198 18.0687 90.4198 18.666C90.4198 19.0673 90.3451 19.38 90.1958 19.604C90.0465 19.828 89.8131 20.0193 89.4958 20.178C89.8318 20.318 90.0931 20.5513 90.2798 20.878C90.4758 21.2047 90.5738 21.5593 90.5738 21.942C90.5738 22.6047 90.3405 23.1133 89.8738 23.468C89.4071 23.8227 88.7491 24 87.8998 24H84.9038ZM87.7038 19.828C88.1611 19.828 88.5251 19.73 88.7958 19.534C89.0665 19.3287 89.2018 19.044 89.2018 18.68C89.2018 18.036 88.7025 17.714 87.7038 17.714H85.8138V19.828H87.7038ZM87.7878 23.006C88.2545 23.006 88.6231 22.9173 88.8938 22.74C89.1738 22.5533 89.3138 22.2827 89.3138 21.928C89.3138 21.5547 89.1878 21.2793 88.9358 21.102C88.6838 20.9247 88.3011 20.836 87.7878 20.836H85.8138V23.006H87.7878ZM94.1381 24.14C93.6808 24.14 93.2561 24.0467 92.8641 23.86C92.4814 23.6733 92.1734 23.4213 91.9401 23.104C91.7161 22.7773 91.6041 22.418 91.6041 22.026C91.6041 21.41 91.8561 20.906 92.3601 20.514C92.8641 20.122 93.5501 19.8607 94.4181 19.73L96.5181 19.436V19.03C96.5181 18.0687 95.9628 17.588 94.8521 17.588C94.4228 17.588 94.0774 17.6767 93.8161 17.854C93.5548 18.022 93.3634 18.2227 93.2421 18.456C93.2048 18.5493 93.1628 18.6147 93.1161 18.652C93.0788 18.68 93.0228 18.694 92.9481 18.694H92.4021C92.3181 18.694 92.2434 18.666 92.1781 18.61C92.1221 18.5447 92.0941 18.47 92.0941 18.386C92.0941 18.1713 92.1921 17.924 92.3881 17.644C92.5934 17.3547 92.9061 17.1073 93.3261 16.902C93.7461 16.6873 94.2594 16.58 94.8661 16.58C95.9114 16.58 96.6581 16.8227 97.1061 17.308C97.5634 17.7933 97.7921 18.4 97.7921 19.128V23.678C97.7921 23.7713 97.7594 23.8507 97.6941 23.916C97.6381 23.972 97.5634 24 97.4701 24H96.8541C96.7608 24 96.6861 23.972 96.6301 23.916C96.5741 23.8507 96.5461 23.7713 96.5461 23.678V23.062C96.3408 23.37 96.0421 23.6267 95.6501 23.832C95.2581 24.0373 94.7541 24.14 94.1381 24.14ZM94.4181 23.118C95.0341 23.118 95.5381 22.9173 95.9301 22.516C96.3221 22.1147 96.5181 21.5313 96.5181 20.766V20.374L94.8801 20.612C94.2081 20.7053 93.6994 20.864 93.3541 21.088C93.0088 21.312 92.8361 21.592 92.8361 21.928C92.8361 22.3107 92.9901 22.6047 93.2981 22.81C93.6154 23.0153 93.9888 23.118 94.4181 23.118ZM99.8754 26.66C99.782 26.66 99.7027 26.632 99.6374 26.576C99.5814 26.52 99.5534 26.4407 99.5534 26.338V17.042C99.5534 16.9393 99.5814 16.86 99.6374 16.804C99.7027 16.748 99.782 16.72 99.8754 16.72H100.463C100.566 16.72 100.645 16.748 100.701 16.804C100.757 16.86 100.785 16.9393 100.785 17.042V17.658C101.327 16.9393 102.097 16.58 103.095 16.58C104.075 16.58 104.808 16.8927 105.293 17.518C105.788 18.134 106.049 18.9227 106.077 19.884C106.087 19.9867 106.091 20.1453 106.091 20.36C106.091 20.5747 106.087 20.7333 106.077 20.836C106.049 21.788 105.788 22.5767 105.293 23.202C104.808 23.8273 104.075 24.14 103.095 24.14C102.097 24.14 101.341 23.7853 100.827 23.076V26.338C100.827 26.4313 100.795 26.506 100.729 26.562C100.673 26.6273 100.599 26.66 100.505 26.66H99.8754ZM102.829 23.048C103.501 23.048 103.991 22.838 104.299 22.418C104.607 21.998 104.775 21.4473 104.803 20.766C104.813 20.6727 104.817 20.5373 104.817 20.36C104.817 18.568 104.155 17.672 102.829 17.672C102.176 17.672 101.681 17.8913 101.345 18.33C101.019 18.7593 100.846 19.268 100.827 19.856C100.818 19.9587 100.813 20.1407 100.813 20.402C100.813 20.6633 100.818 20.8453 100.827 20.948C100.846 21.5173 101.023 22.012 101.359 22.432C101.705 22.8427 102.195 23.048 102.829 23.048ZM111.059 24C110.966 24 110.887 23.972 110.821 23.916C110.765 23.8507 110.737 23.7713 110.737 23.678V17.042C110.737 16.9487 110.765 16.874 110.821 16.818C110.887 16.7527 110.966 16.72 111.059 16.72H113.957C114.797 16.72 115.441 16.8973 115.889 17.252C116.347 17.5973 116.575 18.0687 116.575 18.666C116.575 19.0673 116.501 19.38 116.351 19.604C116.202 19.828 115.969 20.0193 115.651 20.178C115.987 20.318 116.249 20.5513 116.435 20.878C116.631 21.2047 116.729 21.5593 116.729 21.942C116.729 22.6047 116.496 23.1133 116.029 23.468C115.563 23.8227 114.905 24 114.055 24H111.059ZM113.859 19.828C114.317 19.828 114.681 19.73 114.951 19.534C115.222 19.3287 115.357 19.044 115.357 18.68C115.357 18.036 114.858 17.714 113.859 17.714H111.969V19.828H113.859ZM113.943 23.006C114.41 23.006 114.779 22.9173 115.049 22.74C115.329 22.5533 115.469 22.2827 115.469 21.928C115.469 21.5547 115.343 21.2793 115.091 21.102C114.839 20.9247 114.457 20.836 113.943 20.836H111.969V23.006H113.943ZM121.765 24C121.671 24 121.592 23.972 121.527 23.916C121.471 23.8507 121.443 23.7713 121.443 23.678V17.042C121.443 16.9487 121.471 16.874 121.527 16.818C121.592 16.7527 121.671 16.72 121.765 16.72H122.381C122.474 16.72 122.549 16.7527 122.605 16.818C122.67 16.874 122.703 16.9487 122.703 17.042V19.744H126.567V17.042C126.567 16.9487 126.595 16.874 126.651 16.818C126.716 16.7527 126.795 16.72 126.889 16.72H127.505C127.607 16.72 127.687 16.748 127.743 16.804C127.799 16.86 127.827 16.9393 127.827 17.042V23.678C127.827 23.7713 127.794 23.8507 127.729 23.916C127.673 23.972 127.598 24 127.505 24H126.889C126.795 24 126.716 23.972 126.651 23.916C126.595 23.8507 126.567 23.7713 126.567 23.678V20.822H122.703V23.678C122.703 23.7713 122.67 23.8507 122.605 23.916C122.549 23.972 122.474 24 122.381 24H121.765ZM131.683 24.14C131.225 24.14 130.801 24.0467 130.409 23.86C130.026 23.6733 129.718 23.4213 129.485 23.104C129.261 22.7773 129.149 22.418 129.149 22.026C129.149 21.41 129.401 20.906 129.905 20.514C130.409 20.122 131.095 19.8607 131.963 19.73L134.063 19.436V19.03C134.063 18.0687 133.507 17.588 132.397 17.588C131.967 17.588 131.622 17.6767 131.361 17.854C131.099 18.022 130.908 18.2227 130.787 18.456C130.749 18.5493 130.707 18.6147 130.661 18.652C130.623 18.68 130.567 18.694 130.493 18.694H129.947C129.863 18.694 129.788 18.666 129.723 18.61C129.667 18.5447 129.639 18.47 129.639 18.386C129.639 18.1713 129.737 17.924 129.933 17.644C130.138 17.3547 130.451 17.1073 130.871 16.902C131.291 16.6873 131.804 16.58 132.411 16.58C133.456 16.58 134.203 16.8227 134.651 17.308C135.108 17.7933 135.337 18.4 135.337 19.128V23.678C135.337 23.7713 135.304 23.8507 135.239 23.916C135.183 23.972 135.108 24 135.015 24H134.399C134.305 24 134.231 23.972 134.175 23.916C134.119 23.8507 134.091 23.7713 134.091 23.678V23.062C133.885 23.37 133.587 23.6267 133.195 23.832C132.803 24.0373 132.299 24.14 131.683 24.14ZM131.963 23.118C132.579 23.118 133.083 22.9173 133.475 22.516C133.867 22.1147 134.063 21.5313 134.063 20.766V20.374L132.425 20.612C131.753 20.7053 131.244 20.864 130.899 21.088C130.553 21.312 130.381 21.592 130.381 21.928C130.381 22.3107 130.535 22.6047 130.843 22.81C131.16 23.0153 131.533 23.118 131.963 23.118ZM136.72 24C136.627 24 136.547 23.9673 136.482 23.902C136.417 23.8367 136.384 23.7573 136.384 23.664V23.174C136.384 23.09 136.412 23.02 136.468 22.964C136.524 22.908 136.594 22.8753 136.678 22.866C137.126 22.8567 137.462 22.5393 137.686 21.914C137.91 21.2793 138.022 20.2527 138.022 18.834V17.042C138.022 16.9487 138.05 16.874 138.106 16.818C138.171 16.7527 138.251 16.72 138.344 16.72H142.74C142.843 16.72 142.922 16.748 142.978 16.804C143.034 16.86 143.062 16.9393 143.062 17.042V23.678C143.062 23.7713 143.029 23.8507 142.964 23.916C142.908 23.972 142.833 24 142.74 24H142.124C142.031 24 141.951 23.972 141.886 23.916C141.83 23.8507 141.802 23.7713 141.802 23.678V17.798H139.254V18.974C139.254 20.7473 139.049 22.0307 138.638 22.824C138.227 23.608 137.588 24 136.72 24ZM151.03 16.72C151.104 16.72 151.174 16.748 151.24 16.804C151.305 16.86 151.338 16.9253 151.338 17V23.678C151.338 23.7713 151.305 23.8507 151.24 23.916C151.184 23.972 151.109 24 151.016 24H150.4C150.306 24 150.227 23.972 150.162 23.916C150.106 23.8507 150.078 23.7713 150.078 23.678V18.554L146.158 23.79C146.055 23.93 145.934 24 145.794 24H145.192C145.117 24 145.047 23.972 144.982 23.916C144.926 23.8507 144.898 23.7807 144.898 23.706V17.042C144.898 16.9487 144.926 16.874 144.982 16.818C145.047 16.7527 145.126 16.72 145.22 16.72H145.836C145.929 16.72 146.004 16.7527 146.06 16.818C146.125 16.874 146.158 16.9487 146.158 17.042V22.166L150.078 16.93C150.18 16.79 150.302 16.72 150.442 16.72H151.03ZM157.7 24C157.606 24 157.527 23.972 157.462 23.916C157.406 23.8507 157.378 23.7713 157.378 23.678V21.018C156.892 21.4753 156.178 21.704 155.236 21.704C153.518 21.704 152.66 20.9433 152.66 19.422V17.042C152.66 16.9393 152.688 16.86 152.744 16.804C152.809 16.748 152.888 16.72 152.982 16.72H153.612C153.705 16.72 153.78 16.7527 153.836 16.818C153.901 16.874 153.934 16.9487 153.934 17.042V19.338C153.934 19.7673 154.055 20.08 154.298 20.276C154.54 20.4627 154.928 20.556 155.46 20.556C156.076 20.556 156.547 20.4813 156.874 20.332C157.21 20.1733 157.378 19.9167 157.378 19.562V17.042C157.378 16.9487 157.406 16.874 157.462 16.818C157.527 16.7527 157.606 16.72 157.7 16.72H158.358C158.451 16.72 158.526 16.7527 158.582 16.818C158.647 16.874 158.68 16.9487 158.68 17.042V23.678C158.68 23.7713 158.647 23.8507 158.582 23.916C158.526 23.972 158.451 24 158.358 24H157.7ZM166.644 16.72C166.718 16.72 166.788 16.748 166.854 16.804C166.919 16.86 166.952 16.9253 166.952 17V23.678C166.952 23.7713 166.919 23.8507 166.854 23.916C166.798 23.972 166.723 24 166.63 24H166.014C165.92 24 165.841 23.972 165.776 23.916C165.72 23.8507 165.692 23.7713 165.692 23.678V18.554L161.772 23.79C161.669 23.93 161.548 24 161.408 24H160.806C160.731 24 160.661 23.972 160.596 23.916C160.54 23.8507 160.512 23.7807 160.512 23.706V17.042C160.512 16.9487 160.54 16.874 160.596 16.818C160.661 16.7527 160.74 16.72 160.834 16.72H161.45C161.543 16.72 161.618 16.7527 161.674 16.818C161.739 16.874 161.772 16.9487 161.772 17.042V22.166L165.692 16.93C165.794 16.79 165.916 16.72 166.056 16.72H166.644ZM174.867 16.72C174.942 16.72 175.012 16.748 175.077 16.804C175.143 16.86 175.175 16.9253 175.175 17V23.678C175.175 23.7713 175.143 23.8507 175.077 23.916C175.021 23.972 174.947 24 174.853 24H174.237C174.144 24 174.065 23.972 173.999 23.916C173.943 23.8507 173.915 23.7713 173.915 23.678V18.554L169.995 23.79C169.893 23.93 169.771 24 169.631 24H169.029C168.955 24 168.885 23.972 168.819 23.916C168.763 23.8507 168.735 23.7807 168.735 23.706V17.042C168.735 16.9487 168.763 16.874 168.819 16.818C168.885 16.7527 168.964 16.72 169.057 16.72H169.673C169.767 16.72 169.841 16.7527 169.897 16.818C169.963 16.874 169.995 16.9487 169.995 17.042V22.166L173.915 16.93C174.018 16.79 174.139 16.72 174.279 16.72H174.867ZM69.372 37C69.2787 37 69.1993 36.972 69.134 36.916C69.078 36.8507 69.05 36.7713 69.05 36.678V30.042C69.05 29.9487 69.078 29.874 69.134 29.818C69.1993 29.7527 69.2787 29.72 69.372 29.72H69.988C70.0813 29.72 70.156 29.7527 70.212 29.818C70.2773 29.874 70.31 29.9487 70.31 30.042V32.744H74.174V30.042C74.174 29.9487 74.202 29.874 74.258 29.818C74.3233 29.7527 74.4027 29.72 74.496 29.72H75.112C75.2147 29.72 75.294 29.748 75.35 29.804C75.406 29.86 75.434 29.9393 75.434 30.042V36.678C75.434 36.7713 75.4013 36.8507 75.336 36.916C75.28 36.972 75.2053 37 75.112 37H74.496C74.4027 37 74.3233 36.972 74.258 36.916C74.202 36.8507 74.174 36.7713 74.174 36.678V33.822H70.31V36.678C70.31 36.7713 70.2773 36.8507 70.212 36.916C70.156 36.972 70.0813 37 69.988 37H69.372ZM79.2899 37.14C78.8326 37.14 78.4079 37.0467 78.0159 36.86C77.6332 36.6733 77.3252 36.4213 77.0919 36.104C76.8679 35.7773 76.7559 35.418 76.7559 35.026C76.7559 34.41 77.0079 33.906 77.5119 33.514C78.0159 33.122 78.7019 32.8607 79.5699 32.73L81.6699 32.436V32.03C81.6699 31.0687 81.1146 30.588 80.0039 30.588C79.5746 30.588 79.2292 30.6767 78.9679 30.854C78.7066 31.022 78.5152 31.2227 78.3939 31.456C78.3566 31.5493 78.3146 31.6147 78.2679 31.652C78.2306 31.68 78.1746 31.694 78.0999 31.694H77.5539C77.4699 31.694 77.3952 31.666 77.3299 31.61C77.2739 31.5447 77.2459 31.47 77.2459 31.386C77.2459 31.1713 77.3439 30.924 77.5399 30.644C77.7452 30.3547 78.0579 30.1073 78.4779 29.902C78.8979 29.6873 79.4112 29.58 80.0179 29.58C81.0632 29.58 81.8099 29.8227 82.2579 30.308C82.7152 30.7933 82.9439 31.4 82.9439 32.128V36.678C82.9439 36.7713 82.9112 36.8507 82.8459 36.916C82.7899 36.972 82.7152 37 82.6219 37H82.0059C81.9126 37 81.8379 36.972 81.7819 36.916C81.7259 36.8507 81.6979 36.7713 81.6979 36.678V36.062C81.4926 36.37 81.1939 36.6267 80.8019 36.832C80.4099 37.0373 79.9059 37.14 79.2899 37.14ZM79.5699 36.118C80.1859 36.118 80.6899 35.9173 81.0819 35.516C81.4739 35.1147 81.6699 34.5313 81.6699 33.766V33.374L80.0319 33.612C79.3599 33.7053 78.8512 33.864 78.5059 34.088C78.1606 34.312 77.9879 34.592 77.9879 34.928C77.9879 35.3107 78.1419 35.6047 78.4499 35.81C78.7672 36.0153 79.1406 36.118 79.5699 36.118ZM90.7685 37.14C89.7698 37.14 88.9905 36.86 88.4305 36.3C87.8705 35.7307 87.5765 34.9373 87.5485 33.92L87.5345 33.36L87.5485 32.8C87.5765 31.7827 87.8705 30.994 88.4305 30.434C88.9905 29.8647 89.7698 29.58 90.7685 29.58C91.4405 29.58 92.0052 29.7013 92.4625 29.944C92.9292 30.1773 93.2745 30.4713 93.4985 30.826C93.7318 31.1807 93.8578 31.5353 93.8765 31.89C93.8858 31.974 93.8532 32.0487 93.7785 32.114C93.7132 32.1793 93.6385 32.212 93.5545 32.212H92.9385C92.8452 32.212 92.7752 32.1933 92.7285 32.156C92.6818 32.1093 92.6352 32.03 92.5885 31.918C92.4205 31.4607 92.1872 31.1387 91.8885 30.952C91.5992 30.756 91.2305 30.658 90.7825 30.658C90.1945 30.658 89.7278 30.84 89.3825 31.204C89.0372 31.568 88.8505 32.1233 88.8225 32.87L88.8085 33.36L88.8225 33.85C88.8505 34.5967 89.0372 35.152 89.3825 35.516C89.7278 35.88 90.1945 36.062 90.7825 36.062C91.2398 36.062 91.6132 35.9687 91.9025 35.782C92.1918 35.586 92.4205 35.2593 92.5885 34.802C92.6352 34.69 92.6818 34.6153 92.7285 34.578C92.7752 34.5313 92.8452 34.508 92.9385 34.508H93.5545C93.6385 34.508 93.7132 34.5407 93.7785 34.606C93.8532 34.6713 93.8858 34.746 93.8765 34.83C93.8578 35.1753 93.7318 35.5253 93.4985 35.88C93.2745 36.2347 92.9292 36.5333 92.4625 36.776C92.0052 37.0187 91.4405 37.14 90.7685 37.14ZM101.294 36.594C101.331 36.6593 101.35 36.72 101.35 36.776C101.35 36.9253 101.261 37 101.084 37H100.286C100.146 37 100.02 36.93 99.9077 36.79L97.8497 33.85H96.5197V36.678C96.5197 36.7713 96.4871 36.8507 96.4217 36.916C96.3657 36.972 96.2911 37 96.1977 37H95.5957C95.5024 37 95.4231 36.972 95.3577 36.916C95.3017 36.8507 95.2737 36.7713 95.2737 36.678V30.042C95.2737 29.9487 95.3017 29.874 95.3577 29.818C95.4231 29.7527 95.5024 29.72 95.5957 29.72H96.1977C96.3004 29.72 96.3797 29.748 96.4357 29.804C96.4917 29.86 96.5197 29.9393 96.5197 30.042V32.744H97.8217L99.7397 29.93C99.8331 29.79 99.9544 29.72 100.104 29.72H100.79C100.874 29.72 100.944 29.7433 101 29.79C101.056 29.8273 101.084 29.8787 101.084 29.944C101.084 29.9627 101.074 29.9907 101.056 30.028C101.037 30.056 101.023 30.084 101.014 30.112L98.9137 33.206L101.294 36.594ZM102.095 37C102.001 37 101.922 36.9673 101.857 36.902C101.791 36.8367 101.759 36.7573 101.759 36.664V36.174C101.759 36.09 101.787 36.02 101.843 35.964C101.899 35.908 101.969 35.8753 102.053 35.866C102.501 35.8567 102.837 35.5393 103.061 34.914C103.285 34.2793 103.397 33.2527 103.397 31.834V30.042C103.397 29.9487 103.425 29.874 103.481 29.818C103.546 29.7527 103.625 29.72 103.719 29.72H108.115C108.217 29.72 108.297 29.748 108.353 29.804C108.409 29.86 108.437 29.9393 108.437 30.042V36.678C108.437 36.7713 108.404 36.8507 108.339 36.916C108.283 36.972 108.208 37 108.115 37H107.499C107.405 37 107.326 36.972 107.261 36.916C107.205 36.8507 107.177 36.7713 107.177 36.678V30.798H104.629V31.974C104.629 33.7473 104.423 35.0307 104.013 35.824C103.602 36.608 102.963 37 102.095 37ZM112.288 37.14C111.831 37.14 111.406 37.0467 111.014 36.86C110.632 36.6733 110.324 36.4213 110.09 36.104C109.866 35.7773 109.754 35.418 109.754 35.026C109.754 34.41 110.006 33.906 110.51 33.514C111.014 33.122 111.7 32.8607 112.568 32.73L114.668 32.436V32.03C114.668 31.0687 114.113 30.588 113.002 30.588C112.573 30.588 112.228 30.6767 111.966 30.854C111.705 31.022 111.514 31.2227 111.392 31.456C111.355 31.5493 111.313 31.6147 111.266 31.652C111.229 31.68 111.173 31.694 111.098 31.694H110.552C110.468 31.694 110.394 31.666 110.328 31.61C110.272 31.5447 110.244 31.47 110.244 31.386C110.244 31.1713 110.342 30.924 110.538 30.644C110.744 30.3547 111.056 30.1073 111.476 29.902C111.896 29.6873 112.41 29.58 113.016 29.58C114.062 29.58 114.808 29.8227 115.256 30.308C115.714 30.7933 115.942 31.4 115.942 32.128V36.678C115.942 36.7713 115.91 36.8507 115.844 36.916C115.788 36.972 115.714 37 115.62 37H115.004C114.911 37 114.836 36.972 114.78 36.916C114.724 36.8507 114.696 36.7713 114.696 36.678V36.062C114.491 36.37 114.192 36.6267 113.8 36.832C113.408 37.0373 112.904 37.14 112.288 37.14ZM112.568 36.118C113.184 36.118 113.688 35.9173 114.08 35.516C114.472 35.1147 114.668 34.5313 114.668 33.766V33.374L113.03 33.612C112.358 33.7053 111.85 33.864 111.504 34.088C111.159 34.312 110.986 34.592 110.986 34.928C110.986 35.3107 111.14 35.6047 111.448 35.81C111.766 36.0153 112.139 36.118 112.568 36.118ZM117.256 38.54C117.162 38.54 117.083 38.512 117.018 38.456C116.962 38.4 116.934 38.3207 116.934 38.218V36.23C116.934 36.1367 116.962 36.062 117.018 36.006C117.083 35.9407 117.162 35.908 117.256 35.908H117.326C117.718 35.908 118.012 35.5813 118.208 34.928C118.413 34.2747 118.516 33.2433 118.516 31.834V30.042C118.516 29.9487 118.544 29.874 118.6 29.818C118.665 29.7527 118.744 29.72 118.838 29.72H123.262C123.364 29.72 123.444 29.748 123.5 29.804C123.556 29.86 123.584 29.9393 123.584 30.042V35.894H124.242C124.344 35.894 124.424 35.922 124.48 35.978C124.536 36.034 124.564 36.1133 124.564 36.216V38.218C124.564 38.3207 124.536 38.4 124.48 38.456C124.424 38.512 124.344 38.54 124.242 38.54H123.626C123.532 38.54 123.458 38.5073 123.402 38.442C123.346 38.386 123.318 38.3113 123.318 38.218V37H118.194V38.218C118.194 38.3113 118.161 38.386 118.096 38.442C118.04 38.5073 117.965 38.54 117.872 38.54H117.256ZM122.324 35.894V30.798H119.748V31.974C119.748 33.878 119.477 35.1893 118.936 35.908L122.324 35.894ZM128.647 37.14C127.695 37.14 126.934 36.846 126.365 36.258C125.796 35.6607 125.483 34.8487 125.427 33.822L125.413 33.346L125.427 32.884C125.483 31.876 125.796 31.0733 126.365 30.476C126.934 29.8787 127.695 29.58 128.647 29.58C129.674 29.58 130.467 29.9067 131.027 30.56C131.596 31.2133 131.881 32.1 131.881 33.22V33.472C131.881 33.5653 131.848 33.6447 131.783 33.71C131.727 33.766 131.652 33.794 131.559 33.794H126.701V33.92C126.729 34.5267 126.916 35.0447 127.261 35.474C127.606 35.9033 128.064 36.118 128.633 36.118C129.072 36.118 129.426 36.034 129.697 35.866C129.977 35.6887 130.187 35.5067 130.327 35.32C130.411 35.208 130.476 35.1427 130.523 35.124C130.57 35.096 130.649 35.082 130.761 35.082H131.377C131.461 35.082 131.531 35.1053 131.587 35.152C131.652 35.1987 131.685 35.2593 131.685 35.334C131.685 35.5393 131.559 35.7867 131.307 36.076C131.055 36.3653 130.696 36.6173 130.229 36.832C129.772 37.0373 129.244 37.14 128.647 37.14ZM130.607 32.842V32.8C130.607 32.1467 130.43 31.6147 130.075 31.204C129.72 30.7933 129.244 30.588 128.647 30.588C128.04 30.588 127.564 30.7933 127.219 31.204C126.874 31.6147 126.701 32.1467 126.701 32.8V32.842H130.607Z" fill="white"/>
</svg>
