<svg width="244" height="45" viewBox="0 0 244 45" fill="none" xmlns="http://www.w3.org/2000/svg">
<path d="M12.852 36.36C9.42 36.36 6.732 35.532 4.788 33.876C2.868 32.196 1.848 29.772 1.728 26.604C1.704 25.956 1.692 24.9 1.692 23.436C1.692 21.948 1.704 20.868 1.728 20.196C1.848 17.076 2.892 14.676 4.86 12.996C6.828 11.292 9.492 10.44 12.852 10.44C14.964 10.44 16.86 10.8 18.54 11.52C20.22 12.216 21.54 13.224 22.5 14.544C23.484 15.84 23.988 17.364 24.012 19.116V19.188C24.012 19.38 23.928 19.548 23.76 19.692C23.616 19.812 23.448 19.872 23.256 19.872H18.396C18.084 19.872 17.844 19.812 17.676 19.692C17.508 19.548 17.364 19.296 17.244 18.936C16.908 17.712 16.38 16.86 15.66 16.38C14.94 15.876 13.992 15.624 12.816 15.624C9.984 15.624 8.52 17.208 8.424 20.376C8.4 21.024 8.388 22.02 8.388 23.364C8.388 24.708 8.4 25.728 8.424 26.424C8.52 29.592 9.984 31.176 12.816 31.176C13.992 31.176 14.952 30.924 15.696 30.42C16.44 29.892 16.956 29.04 17.244 27.864C17.34 27.504 17.472 27.264 17.64 27.144C17.808 27 18.06 26.928 18.396 26.928H23.256C23.472 26.928 23.652 27 23.796 27.144C23.964 27.288 24.036 27.468 24.012 27.684C23.988 29.436 23.484 30.972 22.5 32.292C21.54 33.588 20.22 34.596 18.54 35.316C16.86 36.012 14.964 36.36 12.852 36.36ZM32.3333 36C32.0933 36 31.8773 35.916 31.6853 35.748C31.5173 35.556 31.4333 35.34 31.4333 35.1V21.996H25.9613C25.7213 21.996 25.5053 21.912 25.3133 21.744C25.1453 21.552 25.0613 21.336 25.0613 21.096V18.18C25.0613 17.916 25.1453 17.7 25.3133 17.532C25.5053 17.364 25.7213 17.28 25.9613 17.28H42.8813C43.1453 17.28 43.3613 17.364 43.5293 17.532C43.6973 17.7 43.7813 17.916 43.7813 18.18V21.096C43.7813 21.336 43.6973 21.552 43.5293 21.744C43.3613 21.912 43.1453 21.996 42.8813 21.996H37.4093V35.1C37.4093 35.34 37.3253 35.556 37.1573 35.748C36.9893 35.916 36.7733 36 36.5093 36H32.3333ZM46.584 42.84C46.344 42.84 46.128 42.756 45.936 42.588C45.768 42.42 45.684 42.204 45.684 41.94V18.18C45.684 17.916 45.768 17.7 45.936 17.532C46.128 17.364 46.344 17.28 46.584 17.28H50.652C50.916 17.28 51.132 17.364 51.3 17.532C51.468 17.7 51.552 17.916 51.552 18.18V19.476C52.848 17.772 54.708 16.92 57.132 16.92C59.484 16.92 61.32 17.652 62.64 19.116C63.96 20.58 64.68 22.644 64.8 25.308C64.824 25.62 64.836 26.064 64.836 26.64C64.836 27.216 64.824 27.66 64.8 27.972C64.704 30.564 63.984 32.616 62.64 34.128C61.296 35.616 59.46 36.36 57.132 36.36C54.78 36.36 53.028 35.556 51.876 33.948V41.94C51.876 42.204 51.792 42.42 51.624 42.588C51.456 42.756 51.24 42.84 50.976 42.84H46.584ZM55.188 31.536C56.316 31.536 57.12 31.2 57.6 30.528C58.104 29.856 58.392 28.932 58.464 27.756C58.512 27.276 58.536 26.904 58.536 26.64C58.536 26.376 58.512 26.004 58.464 25.524C58.392 24.348 58.104 23.424 57.6 22.752C57.12 22.08 56.316 21.744 55.188 21.744C54.084 21.744 53.268 22.092 52.74 22.788C52.236 23.46 51.948 24.336 51.876 25.416L51.84 26.748L51.876 28.116C51.924 29.1 52.224 29.916 52.776 30.564C53.328 31.212 54.132 31.536 55.188 31.536ZM76.5309 36.36C73.5549 36.36 71.2629 35.652 69.6549 34.236C68.0469 32.82 67.1709 30.828 67.0269 28.26C67.0029 27.948 66.9909 27.408 66.9909 26.64C66.9909 25.872 67.0029 25.332 67.0269 25.02C67.1709 22.476 68.0709 20.496 69.7269 19.08C71.3829 17.64 73.6509 16.92 76.5309 16.92C79.4349 16.92 81.7149 17.64 83.3709 19.08C85.0269 20.496 85.9269 22.476 86.0709 25.02C86.0949 25.332 86.1069 25.872 86.1069 26.64C86.1069 27.408 86.0949 27.948 86.0709 28.26C85.9269 30.828 85.0509 32.82 83.4429 34.236C81.8349 35.652 79.5309 36.36 76.5309 36.36ZM76.5309 31.968C77.5869 31.968 78.3669 31.656 78.8709 31.032C79.3749 30.384 79.6629 29.4 79.7349 28.08C79.7589 27.84 79.7709 27.36 79.7709 26.64C79.7709 25.92 79.7589 25.44 79.7349 25.2C79.6629 23.904 79.3629 22.932 78.8349 22.284C78.3309 21.636 77.5629 21.312 76.5309 21.312C74.5389 21.312 73.4829 22.608 73.3629 25.2L73.3269 26.64L73.3629 28.08C73.4109 29.4 73.6869 30.384 74.1909 31.032C74.7189 31.656 75.4989 31.968 76.5309 31.968ZM109.915 17.28C110.107 17.28 110.275 17.352 110.419 17.496C110.563 17.64 110.635 17.808 110.635 18V35.244C110.635 35.46 110.563 35.64 110.419 35.784C110.275 35.928 110.095 36 109.879 36H105.415C105.199 36 105.019 35.928 104.875 35.784C104.731 35.64 104.659 35.46 104.659 35.244V27L101.563 32.4C101.419 32.664 101.263 32.868 101.095 33.012C100.951 33.132 100.759 33.192 100.519 33.192H99.0788C98.8388 33.192 98.6348 33.132 98.4668 33.012C98.2988 32.868 98.1308 32.664 97.9628 32.4L94.9028 27.036V35.244C94.9028 35.46 94.8308 35.64 94.6868 35.784C94.5428 35.928 94.3628 36 94.1468 36H89.6828C89.4908 36 89.3228 35.928 89.1788 35.784C89.0348 35.64 88.9628 35.46 88.9628 35.244V18C88.9628 17.808 89.0348 17.64 89.1788 17.496C89.3228 17.352 89.4908 17.28 89.6828 17.28H93.8228C94.2548 17.28 94.6028 17.496 94.8668 17.928L99.7988 26.676L104.695 17.928C104.959 17.496 105.307 17.28 105.739 17.28H109.915ZM122.898 36.36C120.186 36.36 117.99 35.64 116.31 34.2C114.63 32.736 113.73 30.708 113.61 28.116L113.574 26.676L113.61 25.2C113.706 22.608 114.594 20.58 116.274 19.116C117.978 17.652 120.186 16.92 122.898 16.92C124.938 16.92 126.654 17.292 128.046 18.036C129.462 18.756 130.506 19.632 131.178 20.664C131.874 21.672 132.246 22.596 132.294 23.436C132.318 23.676 132.234 23.892 132.042 24.084C131.874 24.252 131.658 24.336 131.394 24.336H126.822C126.558 24.336 126.354 24.276 126.21 24.156C126.066 24.036 125.934 23.856 125.814 23.616C125.526 22.872 125.154 22.344 124.698 22.032C124.266 21.72 123.702 21.564 123.006 21.564C121.038 21.564 120.018 22.836 119.946 25.38L119.91 26.748L119.946 27.936C119.994 29.232 120.27 30.192 120.774 30.816C121.302 31.416 122.046 31.716 123.006 31.716C123.75 31.716 124.338 31.56 124.77 31.248C125.202 30.936 125.55 30.408 125.814 29.664C125.934 29.424 126.066 29.244 126.21 29.124C126.354 29.004 126.558 28.944 126.822 28.944H131.394C131.634 28.944 131.838 29.028 132.006 29.196C132.198 29.34 132.294 29.532 132.294 29.772C132.294 30.54 131.958 31.44 131.286 32.472C130.638 33.504 129.606 34.416 128.19 35.208C126.774 35.976 125.01 36.36 122.898 36.36ZM135.708 36C135.444 36 135.228 35.916 135.06 35.748C134.892 35.58 134.808 35.364 134.808 35.1V18.18C134.808 17.916 134.892 17.7 135.06 17.532C135.228 17.364 135.444 17.28 135.708 17.28H139.956C140.22 17.28 140.436 17.364 140.604 17.532C140.772 17.7 140.856 17.916 140.856 18.18V24.156H147.336V18.18C147.336 17.916 147.42 17.7 147.588 17.532C147.756 17.364 147.972 17.28 148.236 17.28H152.484C152.748 17.28 152.964 17.364 153.132 17.532C153.3 17.7 153.384 17.916 153.384 18.18V35.1C153.384 35.34 153.3 35.556 153.132 35.748C152.964 35.916 152.748 36 152.484 36H148.236C147.972 36 147.756 35.916 147.588 35.748C147.42 35.58 147.336 35.364 147.336 35.1V28.872H140.856V35.1C140.856 35.34 140.772 35.556 140.604 35.748C140.436 35.916 140.22 36 139.956 36H135.708ZM162.661 36.36C161.389 36.36 160.225 36.12 159.169 35.64C158.137 35.136 157.321 34.464 156.721 33.624C156.145 32.76 155.857 31.812 155.857 30.78C155.857 29.124 156.529 27.792 157.873 26.784C159.241 25.776 161.113 25.08 163.489 24.696L167.989 24.012V23.508C167.989 22.596 167.797 21.924 167.413 21.492C167.029 21.06 166.381 20.844 165.469 20.844C164.917 20.844 164.461 20.94 164.101 21.132C163.741 21.324 163.369 21.588 162.985 21.924C162.649 22.212 162.397 22.404 162.229 22.5C162.157 22.692 162.025 22.788 161.833 22.788H157.909C157.669 22.788 157.465 22.716 157.297 22.572C157.153 22.404 157.093 22.212 157.117 21.996C157.141 21.348 157.453 20.628 158.053 19.836C158.677 19.044 159.613 18.36 160.861 17.784C162.133 17.208 163.693 16.92 165.541 16.92C168.493 16.92 170.677 17.58 172.093 18.9C173.509 20.196 174.217 21.948 174.217 24.156V35.1C174.217 35.34 174.133 35.556 173.965 35.748C173.797 35.916 173.581 36 173.317 36H169.141C168.901 36 168.685 35.916 168.493 35.748C168.325 35.556 168.241 35.34 168.241 35.1V33.84C167.713 34.584 166.969 35.196 166.009 35.676C165.073 36.132 163.957 36.36 162.661 36.36ZM164.353 32.256C165.457 32.256 166.345 31.896 167.017 31.176C167.713 30.456 168.061 29.4 168.061 28.008V27.504L165.001 28.044C162.841 28.428 161.761 29.184 161.761 30.312C161.761 30.912 162.013 31.392 162.517 31.752C163.021 32.088 163.633 32.256 164.353 32.256ZM196.063 26.208C196.111 26.784 196.135 27.228 196.135 27.54C196.135 27.852 196.111 28.272 196.063 28.8C195.919 31.2 195.043 33.06 193.435 34.38C191.827 35.7 189.535 36.36 186.559 36.36C183.343 36.36 180.979 35.592 179.467 34.056C177.979 32.496 177.163 30.036 177.019 26.676L176.983 24.48L177.019 22.32C177.115 19.008 177.667 16.512 178.675 14.832C179.683 13.152 181.183 11.892 183.175 11.052C185.191 10.212 188.347 9.312 192.643 8.352C192.715 8.328 192.787 8.316 192.859 8.316C193.051 8.316 193.219 8.364 193.363 8.46C193.579 8.604 193.699 8.808 193.723 9.072L194.335 12.384L194.371 12.6C194.371 12.816 194.299 12.996 194.155 13.14C194.035 13.284 193.879 13.38 193.687 13.428C190.471 14.076 188.215 14.604 186.919 15.012C185.623 15.42 184.651 16.032 184.003 16.848C183.355 17.64 182.971 18.876 182.851 20.556C183.403 19.98 184.099 19.524 184.939 19.188C185.803 18.828 186.715 18.648 187.675 18.648C190.291 18.648 192.307 19.308 193.723 20.628C195.139 21.948 195.919 23.808 196.063 26.208ZM189.727 28.656C189.751 28.464 189.763 28.092 189.763 27.54C189.763 26.964 189.751 26.568 189.727 26.352C189.607 23.88 188.623 22.644 186.775 22.644C184.615 22.644 183.475 23.88 183.355 26.352L183.319 27.54L183.355 28.656C183.403 29.904 183.679 30.84 184.183 31.464C184.711 32.064 185.503 32.364 186.559 32.364C187.591 32.364 188.359 32.064 188.863 31.464C189.391 30.84 189.679 29.904 189.727 28.656Z" fill="white"/>
<path d="M208 40V5.85713C208 3.57935 210 1 214 1C218 1 220 3.57935 220 5.85713V22H239" stroke="#BCDDFF" stroke-width="2" stroke-miterlimit="10"/>
<path d="M225 20C225 19.4477 225.448 19 226 19H243.222V25.0741H226C225.448 25.0741 225 24.6264 225 24.0741V20Z" fill="#BCDDFF"/>
<path d="M202 7V37C202 37.5523 202.448 38 203 38H213C213.552 38 214 37.5523 214 37V7C214 6.44772 213.552 6 213 6H203C202.448 6 202 6.44772 202 7Z" fill="white"/>
</svg>
