<svg width="22" height="16" viewBox="0 0 22 16" fill="none" xmlns="http://www.w3.org/2000/svg">
<path d="M11 0.227051C6 0.227051 1.73 3.3398 0 7.73367C1.73 12.1275 6 15.2403 11 15.2403C16 15.2403 20.27 12.1275 22 7.73367C20.27 3.3398 16 0.227051 11 0.227051ZM11 12.7381C8.24 12.7381 6 10.4961 6 7.73367C6 4.97124 8.24 2.72926 11 2.72926C13.76 2.72926 16 4.97124 16 7.73367C16 10.4961 13.76 12.7381 11 12.7381ZM11 4.73102C9.34 4.73102 8 6.07221 8 7.73367C8 9.39514 9.34 10.7363 11 10.7363C12.66 10.7363 14 9.39514 14 7.73367C14 6.07221 12.66 4.73102 11 4.73102Z" fill="#304FFE"/>
</svg>
