<svg width="36" height="36" viewBox="0 0 36 36" fill="none" xmlns="http://www.w3.org/2000/svg">
<rect width="36" height="36" rx="18" fill="#9DAADF"/>
<path fill-rule="evenodd" clip-rule="evenodd" d="M21.9413 26.8522C23.1994 27.3988 23.6712 26.2534 23.6712 26.2534L27 9.64532C26.9738 8.52596 25.4535 9.20278 25.4535 9.20278L6.81746 16.4656C6.81746 16.4656 5.92628 16.778 6.00491 17.3246C6.08355 17.8713 6.79125 18.1316 6.79125 18.1316L11.483 19.6935C11.483 19.6935 12.8984 24.3011 13.1868 25.1861C13.4489 26.0452 13.6848 26.0712 13.6848 26.0712C13.9469 26.1753 14.1828 25.9931 14.1828 25.9931L17.2233 23.2598L21.9413 26.8522ZM22.8142 12.5496C22.8142 12.5496 23.4694 12.1564 23.4432 12.5496C23.4432 12.5496 23.5481 12.602 23.2073 12.9689C22.8928 13.2835 15.4751 19.9411 14.479 20.8323C14.4004 20.8847 14.348 20.9633 14.348 21.0682L14.0597 23.532C14.0072 23.7941 13.6665 23.8203 13.5879 23.5844L12.3559 19.5479C12.3035 19.3907 12.3559 19.2072 12.5132 19.1023L22.8142 12.5496Z" fill="white"/>
</svg>
