<svg width="36" height="36" viewBox="0 0 36 36" fill="none" xmlns="http://www.w3.org/2000/svg">
<rect width="36" height="36" rx="18" fill="#9DAADF"/>
<path d="M26.517 9.46508C25.9417 8.9362 23.6128 7.24285 18.4214 7.21965C18.4214 7.21965 12.3021 6.8485 9.31902 9.5857C7.65814 11.2466 7.07358 13.6729 7.01327 16.6885C6.95296 19.6994 6.87409 25.3455 12.316 26.8765H12.3207L12.316 29.21C12.316 29.21 12.2835 30.1565 12.9052 30.3467C13.6568 30.5786 14.1022 29.8595 14.8213 29.0848C15.2156 28.658 15.7584 28.0363 16.1713 27.5584C19.892 27.8693 22.7545 27.1548 23.0792 27.0481C23.8308 26.8022 28.0851 26.2594 28.7763 20.6134C29.4908 14.8049 28.4284 11.126 26.517 9.46508ZM27.1479 20.2051C26.5634 24.9187 23.1164 25.2156 22.4808 25.4197C22.2117 25.5079 19.6972 26.1342 16.5332 25.9254C16.5332 25.9254 14.1764 28.7693 13.4434 29.507C13.3274 29.6229 13.1929 29.6693 13.1047 29.6461C12.9794 29.6137 12.9423 29.4652 12.947 29.2472C12.947 28.9317 12.9655 25.364 12.9655 25.364C12.9609 25.364 12.9609 25.364 12.9655 25.364C8.35868 24.0882 8.62776 19.2819 8.67879 16.7674C8.72982 14.2529 9.20303 12.1884 10.6087 10.8012C13.1279 8.51866 18.3286 8.85733 18.3286 8.85733C22.7174 8.87589 24.819 10.1981 25.3061 10.6388C26.9252 12.0306 27.751 15.3477 27.1479 20.2051Z" fill="white"/>
<path d="M20.5601 16.8556C20.407 16.8556 20.2771 16.7349 20.2678 16.5772C20.2168 15.5797 19.7482 15.0926 18.7925 15.0416C18.6301 15.0323 18.5049 14.8931 18.5142 14.7307C18.5234 14.5684 18.6626 14.4431 18.825 14.4524C20.0869 14.522 20.7921 15.2457 20.857 16.5447C20.8663 16.7071 20.741 16.8463 20.5787 16.8509C20.5694 16.8556 20.5647 16.8556 20.5601 16.8556Z" fill="white"/>
<path d="M22.0632 17.3566H22.0586C21.8962 17.3519 21.7663 17.2174 21.7709 17.055C21.7941 16.0529 21.5065 15.241 20.8941 14.573C20.2863 13.9049 19.4466 13.5431 18.3378 13.4642C18.1755 13.4503 18.0548 13.3111 18.0688 13.1487C18.0827 12.9863 18.2218 12.8657 18.3842 12.8796C19.6368 12.9724 20.625 13.4085 21.3302 14.1786C22.04 14.9534 22.3833 15.923 22.3601 17.0689C22.3555 17.2313 22.2209 17.3566 22.0632 17.3566Z" fill="white"/>
<path d="M23.6035 17.9597C23.4411 17.9597 23.3112 17.8298 23.3112 17.6674C23.2973 15.872 22.7823 14.5034 21.7338 13.4781C20.6992 12.4667 19.3863 11.9517 17.8414 11.9378C17.679 11.9378 17.5491 11.8033 17.5491 11.6409C17.5491 11.4785 17.6837 11.3486 17.8414 11.3486C19.544 11.3626 20.9915 11.9332 22.1374 13.0559C23.288 14.1786 23.8772 15.7282 23.8957 17.6581C23.9004 17.8251 23.7705 17.9597 23.6035 17.9597C23.6081 17.9597 23.6081 17.9597 23.6035 17.9597Z" fill="white"/>
<path d="M18.8621 20.488C18.8621 20.488 19.275 20.5251 19.4977 20.2514L19.9291 19.7086C20.1379 19.4395 20.6436 19.2679 21.1353 19.5416C21.4091 19.6947 21.9055 20.0009 22.2117 20.2282C22.5411 20.4694 23.2091 21.0262 23.2138 21.0308C23.5339 21.2999 23.6081 21.6942 23.39 22.1164C23.39 22.1164 23.39 22.121 23.39 22.1257C23.1674 22.52 22.8658 22.8912 22.49 23.2345C22.4854 23.2345 22.4854 23.2391 22.4807 23.2391C22.1699 23.4989 21.8637 23.6474 21.5668 23.6799C21.5297 23.6891 21.4879 23.6891 21.4323 23.6891C21.3024 23.6891 21.1725 23.6706 21.0426 23.6288L21.0333 23.6149C20.5693 23.485 19.7992 23.1602 18.5188 22.4504C17.6837 21.9911 16.9924 21.5226 16.4032 21.054C16.0924 20.8081 15.7769 20.5344 15.4522 20.2096C15.4429 20.2004 15.429 20.1864 15.4197 20.1772C15.4104 20.1679 15.3965 20.154 15.3872 20.1447C15.3779 20.1354 15.364 20.1215 15.3547 20.1122C15.3455 20.1029 15.3315 20.089 15.3223 20.0797C15.0022 19.755 14.7238 19.4395 14.4779 19.1287C14.0093 18.5441 13.5408 17.8482 13.0815 17.0131C12.3717 15.7281 12.0469 14.9579 11.917 14.4986L11.9031 14.4894C11.8613 14.3595 11.8428 14.2296 11.8428 14.0997C11.8428 14.044 11.8428 14.0022 11.8521 13.9651C11.8892 13.6636 12.0376 13.362 12.2928 13.0512C12.2928 13.0465 12.2974 13.0465 12.2974 13.0419C12.6407 12.6615 13.0119 12.3645 13.4062 12.1419C13.4062 12.1419 13.4109 12.1419 13.4155 12.1419C13.833 11.9238 14.2274 11.998 14.5011 12.3182C14.5011 12.3182 15.0625 12.9909 15.3037 13.3202C15.531 13.6311 15.8372 14.1228 15.9903 14.3966C16.264 14.8883 16.0924 15.394 15.8233 15.6028L15.2805 16.0343C15.0068 16.2569 15.0439 16.6698 15.0439 16.6698C15.0439 16.6698 15.8465 19.7225 18.8621 20.488Z" fill="white"/>
</svg>
