<svg width="36" height="36" viewBox="0 0 36 36" fill="none" xmlns="http://www.w3.org/2000/svg">
<rect width="36" height="36" rx="18" fill="#9DAADF"/>
<path fill-rule="evenodd" clip-rule="evenodd" d="M28.4952 12.8802C28.6482 12.3729 28.4952 12 27.7673 12H25.3605C24.7485 12 24.4666 12.3221 24.3136 12.6774C24.3136 12.6774 23.0895 15.6456 21.3556 17.5738C20.7946 18.1319 20.5397 18.3093 20.2337 18.3093C20.0807 18.3093 19.8593 18.1319 19.8593 17.6246V12.8802C19.8593 12.2713 19.6817 12 19.1716 12H15.3895C15.0071 12 14.7771 12.2826 14.7771 12.5504C14.7771 13.1278 15.6439 13.2608 15.7333 14.8845V18.4111C15.7333 19.1842 15.593 19.3245 15.287 19.3245C14.4711 19.3245 12.4865 16.3427 11.3092 12.931C11.0785 12.2679 10.8471 12 10.232 12H7.82519C7.13753 12 7 12.3221 7 12.6774C7 13.3116 7.81608 16.4576 10.7993 20.6183C12.7884 23.4595 15.5903 25 18.1401 25C19.6701 25 19.8593 24.6579 19.8593 24.0686V21.9211C19.8593 21.2368 20.0042 21.1003 20.4885 21.1003C20.8457 21.1003 21.4575 21.2779 22.8856 22.6479C24.5175 24.2713 24.7863 25 25.7044 25H28.1112C28.7988 25 29.1427 24.6579 28.9443 23.9827C28.7273 23.3098 27.9482 22.3338 26.9143 21.1765C26.3533 20.5167 25.5118 19.8063 25.257 19.4512C24.9 18.9945 25.0019 18.7916 25.257 18.3859C25.257 18.3859 28.1892 14.2759 28.4952 12.8804V12.8802Z" fill="white"/>
</svg>
