<svg width="36" height="36" viewBox="0 0 36 36" fill="none" xmlns="http://www.w3.org/2000/svg">
<rect width="36" height="36" rx="18" fill="#9DAADF"/>
<path d="M26.063 9.90862C24.1333 7.92213 21.4657 6.84375 18.7414 6.84375C12.9522 6.84375 8.29815 11.5546 8.35491 17.287C8.35491 19.1032 8.86572 20.8627 9.71707 22.4519L8.24139 27.8438L13.7468 26.4248C15.2792 27.2762 16.9819 27.6735 18.6846 27.6735C24.4171 27.6735 29.0711 22.9627 29.0711 17.2302C29.0711 14.4492 27.9927 11.8383 26.063 9.90862ZM18.7414 25.914C17.209 25.914 15.6765 25.5167 14.3711 24.7221L14.0306 24.5519L10.7387 25.4032L11.59 22.1681L11.363 21.8275C8.86572 17.7978 10.0576 12.4627 14.1441 9.96537C18.2306 7.46807 23.509 8.65997 26.0063 12.7465C28.5036 16.8329 27.3117 22.1113 23.2252 24.6086C21.9198 25.46 20.3306 25.914 18.7414 25.914ZM23.736 19.614L23.1117 19.3302C23.1117 19.3302 22.2036 18.9329 21.636 18.6492C21.5792 18.6492 21.5225 18.5924 21.4657 18.5924C21.2954 18.5924 21.1819 18.6492 21.0684 18.7059C21.0684 18.7059 21.0117 18.7627 20.2171 19.6708C20.1603 19.7843 20.0468 19.841 19.9333 19.841H19.8765C19.8198 19.841 19.7063 19.7843 19.6495 19.7275L19.3657 19.614C18.7414 19.3302 18.1738 18.9897 17.7198 18.5356C17.6063 18.4221 17.436 18.3086 17.3225 18.1951C16.9252 17.7978 16.5279 17.3438 16.2441 16.8329L16.1873 16.7194C16.1306 16.6627 16.1306 16.6059 16.0738 16.4924C16.0738 16.3789 16.0738 16.2654 16.1306 16.2086C16.1306 16.2086 16.3576 15.9248 16.5279 15.7546C16.6414 15.641 16.6982 15.4708 16.8117 15.3573C16.9252 15.187 16.9819 14.96 16.9252 14.7897C16.8684 14.5059 16.1873 12.9735 16.0171 12.6329C15.9036 12.4627 15.79 12.4059 15.6198 12.3492H15.4495C15.336 12.3492 15.1657 12.3492 14.9954 12.3492C14.8819 12.3492 14.7684 12.4059 14.6549 12.4059L14.5982 12.4627C14.4846 12.5194 14.3711 12.6329 14.2576 12.6897C14.1441 12.8032 14.0873 12.9167 13.9738 13.0302C13.5765 13.541 13.3495 14.1654 13.3495 14.7897C13.3495 15.2438 13.463 15.6978 13.6333 16.0951L13.69 16.2654C14.2009 17.3438 14.8819 18.3086 15.79 19.16L16.0171 19.387C16.1873 19.5573 16.3576 19.6708 16.4711 19.841C17.663 20.8627 19.0252 21.6005 20.5576 21.9978C20.7279 22.0546 20.9549 22.0546 21.1252 22.1113C21.2954 22.1113 21.5225 22.1113 21.6927 22.1113C21.9765 22.1113 22.3171 21.9978 22.5441 21.8843C22.7144 21.7708 22.8279 21.7708 22.9414 21.6573L23.0549 21.5437C23.1684 21.4302 23.2819 21.3735 23.3954 21.26C23.509 21.1465 23.6225 21.0329 23.6792 20.9194C23.7927 20.6924 23.8495 20.4086 23.9063 20.1248C23.9063 20.0113 23.9063 19.841 23.9063 19.7275C23.9063 19.7275 23.8495 19.6708 23.736 19.614Z" fill="white"/>
</svg>
